HIERARCHY
ROOT Bip001_Pelvis
{
  OFFSET 34.4345 95.6767 -26.8758
  CHANNELS 6 Xposition Yposition Zposition Zrotation Xrotation Yrotation
  JOINT Bip001_Spine
  {
    OFFSET 1.4188e-005 10.2191 -0.0116013
    CHANNELS 3 Zrotation Xrotation Yrotation
    JOINT Bip001_L_Thigh
    {
      OFFSET 11.0458 -10.2192 0.0116197
      CHANNELS 3 Zrotation Xrotation Yrotation
      JOINT Bip001_L_Calf
      {
        OFFSET -0.707118 -44.0221 0.360014
        CHANNELS 3 Zrotation Xrotation Yrotation
        JOINT Bip001_L_Foot
        {
          OFFSET -0.651902 -40.5938 -3.56146
          CHANNELS 3 Zrotation Xrotation Yrotation
          JOINT Bip001_L_Toe0
          {
            OFFSET 0.0530839 -10.2181 13.1504
            CHANNELS 3 Zrotation Xrotation Yrotation
            End Site
            {
              OFFSET -1.02532e-005 0 7.55606
            }
          }
        }
      }
    }
    JOINT Bip001_R_Thigh
    {
      OFFSET -11.0458 -10.2191 0.0115893
      CHANNELS 3 Zrotation Xrotation Yrotation
      JOINT Bip001_R_Calf
      {
        OFFSET 0.706994 -44.0221 0.35984
        CHANNELS 3 Zrotation Xrotation Yrotation
        JOINT Bip001_R_Foot
        {
          OFFSET 0.651786 -40.5938 -3.5613
          CHANNELS 3 Zrotation Xrotation Yrotation
          JOINT Bip001_R_Toe0
          {
            OFFSET -0.0531479 -10.2181 13.1504
            CHANNELS 3 Zrotation Xrotation Yrotation
            End Site
            {
              OFFSET -1.02894e-005 0 7.55606
            }
          }
        }
      }
    }
    JOINT Bip001_Spine1
    {
      OFFSET 1.87041e-005 14.5736 1.08638
      CHANNELS 3 Zrotation Xrotation Yrotation
      JOINT Bip001_Spine2
      {
        OFFSET 2.24614e-005 14.5058 -1.69078
        CHANNELS 3 Zrotation Xrotation Yrotation
        JOINT Bip001_Neck
        {
          OFFSET 2.20278e-005 15.3945 -0.489414
          CHANNELS 3 Zrotation Xrotation Yrotation
          JOINT Bip001_L_Clavicle
          {
            OFFSET 6.06036 -0.000579998 0.00836775
            CHANNELS 3 Zrotation Xrotation Yrotation
            JOINT Bip001_L_UpperArm
            {
              OFFSET 11.5509 -0.0600302 0.00193952
              CHANNELS 3 Zrotation Xrotation Yrotation
              JOINT Bip001_L_Forearm
              {
                OFFSET 25.9523 0.0806089 -2.15551
                CHANNELS 3 Zrotation Xrotation Yrotation
                JOINT Bip001_L_Hand
                {
                  OFFSET 32.2475 0.153767 1.63968
                  CHANNELS 3 Zrotation Xrotation Yrotation
                  JOINT Bip001_L_Finger0
                  {
                    OFFSET 6.04639 -2.20976 5.90322
                    CHANNELS 3 Zrotation Xrotation Yrotation
                    End Site
                    {
                      OFFSET 4.22375 -1.43895 0.606485
                    }
                  }
                  JOINT Bip001_L_Finger1
                  {
                    OFFSET 11.0826 -0.704819 -0.198153
                    CHANNELS 3 Zrotation Xrotation Yrotation
                    End Site
                    {
                      OFFSET 6.20027 -0.397518 -0.0787166
                    }
                  }
                }
              }
            }
          }
          JOINT Bip001_R_Clavicle
          {
            OFFSET -6.06037 -0.000563197 0.00835105
            CHANNELS 3 Zrotation Xrotation Yrotation
            JOINT Bip001_R_UpperArm
            {
              OFFSET -11.5509 -0.0599978 0.00190698
              CHANNELS 3 Zrotation Xrotation Yrotation
              JOINT Bip001_R_Forearm
              {
                OFFSET -25.9523 0.0806822 -2.15589
                CHANNELS 3 Zrotation Xrotation Yrotation
                JOINT Bip001_R_Hand
                {
                  OFFSET -32.2475 0.153859 1.63989
                  CHANNELS 3 Zrotation Xrotation Yrotation
                  JOINT Bip001_R_Finger0
                  {
                    OFFSET -6.04641 -2.20976 5.90317
                    CHANNELS 3 Zrotation Xrotation Yrotation
                    End Site
                    {
                      OFFSET -4.22376 -1.43895 0.60647
                    }
                  }
                  JOINT Bip001_R_Finger1
                  {
                    OFFSET -11.0826 -0.704794 -0.198182
                    CHANNELS 3 Zrotation Xrotation Yrotation
                    End Site
                    {
                      OFFSET -6.20028 -0.397504 -0.0787333
                    }
                  }
                }
              }
            }
          }
          JOINT Bip001_Head
          {
            OFFSET 1.09673e-005 11.2744 2.05948
            CHANNELS 3 Zrotation Xrotation Yrotation
            End Site
            {
              OFFSET 2.89576e-005 20.8808 -2.77728e-005
            }
          }
        }
      }
    }
  }
}
MOTION
Frames:	8
Frame Time:	0.04
38.0689 88.8092 -34.0057 -6.73203 -8.40427 1.51076 0.0442338 4.38697 0.199068 15.9267 -17.9945 10.9675 -7.26484 48.2416 1.5774 11.6921 -20.9834 1.62465 2.44857 -6.82264 -1.42695 -5.67445 -13.2894 0.0150144 11.8229 37.8148 -5.20158 -13.7443 -13.6323 -11.0815 4.86245 -15.008 4.99601 0.0733781 8.77412 0.396461 0.0733744 8.77403 0.396463 -0.316044 -0.874728 1.93413 -20.5894 5.73635 -13.3475 -33.9591 42.8087 -2.94743 16.5656 0.211343 -31.3063 8.8496 1.64758 -4.07092 6.36111e-015 3.18055e-015 -6.36111e-015 6.36111e-015 1.59028e-015 -4.77083e-015 15.5221 6.21371 20.8701 48.5643 -43.297 24.3808 -46.1532 6.47869 81.9068 -35.4828 -28.0415 14.7329 3.18055e-015 0 -0 3.18055e-015 0 1.59028e-015 -7.45493 0.481457 3.49105 
38.0068 88.2731 -33.8938 -6.80318 -8.48028 3.27901 -0.137484 4.31454 0.739806 16.5756 -19.2222 10.4171 -7.88075 49.9109 0.723129 12.7696 -21.3641 1.80473 2.71421 -6.92678 -1.69014 -5.69495 -13.5205 -0.362287 13.3645 39.2365 -6.68928 -14.5482 -13.9734 -12.2413 4.99505 -15.2967 5.04641 -0.332421 8.62693 1.49642 -0.332416 8.62682 1.49642 -2.31165 0.452081 0.583852 -19.5537 4.14539 -12.5925 -30.7159 43.4968 -5.49939 14.8552 -0.14316 -28.4218 8.94265 1.06285 -4.56346 3.18055e-015 -9.54166e-015 1.59028e-015 -3.18055e-015 -6.36111e-015 3.18055e-015 16.3754 5.33953 23.8527 43.0533 -30.7095 32.9498 -41.2469 3.27225 66.4037 -32.6758 -30.0425 16.0083 3.18055e-015 -3.18055e-015 3.18055e-015 3.18055e-015 -3.18056e-015 6.36111e-015 -4.91661 3.24 1.10982 
38.0894 88.1659 -33.61 -6.31706 -8.96358 4.96798 -0.277206 4.33404 1.14504 16.3577 -19.2248 9.96958 -7.78323 50.209 -0.502404 12.4357 -22.1935 1.85801 2.7089 -6.48021 -2.04684 -5.92424 -12.6575 -1.17027 13.408 39.5627 -6.75602 -15.0181 -13.958 -13.2367 5.11714 -15.5335 5.04435 -0.643991 8.66162 2.32138 -0.644117 8.66177 2.32127 -3.71492 -0.389078 -0.764566 -19.4967 4.71491 -11.2056 -28.5119 42.3745 -6.29969 14.3767 2.55265 -27.5016 8.37018 0.236356 -5.19665 6.36111e-015 0 -6.36111e-015 6.36111e-015 3.18056e-015 -6.36111e-015 16.3666 6.67062 27.1261 35.59 -21.0152 41.2985 -48.7988 4.66854 46.3811 -44.535 -17.264 11.3225 3.18055e-015 0 -1.59028e-015 3.18055e-015 0 -3.18055e-015 -3.03536 7.0846 -0.972172 
38.1353 88.6445 -33.195 -5.96739 -9.02128 6.62247 -0.386598 4.21317 1.24722 16.3796 -18.4711 9.67555 -8.15538 48.6906 -1.37823 12.1218 -21.9732 1.79448 3.18367 -6.40975 -2.66627 -5.65799 -11.149 -1.11494 13.0501 37.8919 -6.49274 -15.0772 -13.0282 -14.3726 5.08422 -15.4224 4.96667 -0.880976 8.41676 2.53122 -0.874513 8.41686 2.53279 -2.69335 -0.370964 -2.02846 -20.2361 4.111 -9.76697 -29.4443 41.8844 -5.93671 15.1667 4.87161 -26.5829 8.75023 0.774395 -5.48413 3.18055e-015 -6.36111e-015 -0 6.36111e-015 -3.18056e-015 -0 15.9299 7.03363 27.6783 62.1917 -35.8023 55.7726 -54.6247 10.4741 53.9498 -30.7069 -33.4218 12.1307 3.18055e-015 -9.54166e-015 6.36111e-015 3.18055e-015 -9.54167e-015 4.77083e-015 -3.14359 7.13422 -1.75824 
38.5517 89.3911 -32.5306 -5.30315 -9.98123 8.08271 -0.399749 4.01554 0.701017 15.0849 -16.0763 9.27809 -6.52134 46.5151 -3.1 10.9467 -21.7441 1.58564 3.01119 -5.93848 -2.63929 -5.57351 -7.91092 -2.07754 10.855 35.3769 -4.64763 -14.5482 -12.0564 -14.3613 5.04013 -15.2858 4.88113 -0.836096 8.02588 1.43322 -0.844931 8.0258 1.43386 1.78936 2.19852 -3.25404 -21.5806 0.727646 -9.3441 -38.0726 44.3542 -0.342384 16.5576 3.88164 -26.2116 9.64865 1.34654 -4.46666 -0 -3.18055e-015 -0 3.18055e-015 -3.18056e-015 -0 15.0312 5.32527 27.1296 47.2273 -35.4013 47.0269 -46.8664 6.94136 51.6202 -29.2891 -28.4555 12.4234 -6.36111e-015 -9.54166e-015 -3.18055e-015 -6.36111e-015 -6.36111e-015 -1.59028e-015 -7.15887 4.60272 -0.831435 
39.208 90.3651 -31.9742 -4.13644 -11.435 6.70549 -0.202333 3.78221 0.22292 12.3841 -11.5479 10.8078 -3.39062 42.7144 -4.96908 10.217 -20.4484 1.40146 2.98489 -6.08239 -2.53895 -6.32589 -4.47503 -2.06602 7.85276 32.4067 -2.49063 -13.2031 -11.1002 -12.6488 5.03884 -15.2414 4.79871 -0.420877 7.56354 0.46071 -0.420877 7.56355 0.460706 2.6276 3.34308 -3.36747 -22.917 -0.397401 -9.49789 -45.141 47.0592 6.26962 16.1349 3.08411 -25.7506 7.79318 1.58787 -4.1122 3.18055e-015 0 -1.59028e-015 3.18055e-015 0 -1.59028e-015 13.4058 3.26224 25.2754 33.1442 -27.4471 36.7262 -34.459 -1.32878 48.2618 -23.3227 -27.1037 15.0756 3.53112e-031 -6.36111e-015 3.18055e-015 6.36111e-015 -6.36111e-015 3.18055e-015 -8.22001 4.10947 -0.320017 
39.7633 91.505 -31.651 -3.3073 -11.571 3.80034 -0.0170632 3.58422 -0.0406065 9.60489 -7.74057 11.0537 -2.55613 37.3882 -3.08059 10.4968 -17.7489 1.14333 3.15684 -6.84846 -2.42249 -7.1899 -2.54666 -2.28618 4.78899 28.5705 -0.428764 -11.5029 -10.0143 -9.93132 4.85316 -14.8401 4.75079 -0.0305343 7.16843 -0.0755586 -0.0309405 7.16844 -0.0781607 0.221412 0.92682 -2.6144 -22.1304 2.14257 -8.50434 -47.7279 50.4125 8.65224 16.6401 5.32864 -24.3419 3.98666 1.7111 -4.30764 3.18055e-015 3.18055e-015 7.95139e-016 3.18055e-015 3.18056e-015 1.59028e-015 14.0925 5.50469 25.6558 23.7423 -21.2297 27.7057 -27.4396 -9.84188 47.8835 -15.7351 -24.0077 19.2754 -3.18055e-015 9.54166e-015 3.18055e-015 5.29669e-031 9.54167e-015 -3.18055e-015 -5.66522 5.56356 -0.95998 
40.0741 92.5977 -31.373 -3.18194 -11.2929 0.342594 0.108451 3.50207 -0.0697762 7.72002 -4.51934 10.4828 -2.743 31.8405 0.214658 11.1904 -14.7949 0.909784 3.33592 -7.72895 -2.30037 -7.31191 -1.06078 -3.05129 1.84806 23.9035 1.10945 -9.49194 -8.71558 -6.38938 4.66349 -14.4328 4.69637 0.221293 7.00398 -0.143921 0.221675 7.004 -0.145458 -1.16257 -3.01094 -2.46618 -20.3268 5.61216 -6.27407 -50.279 57.1431 9.93933 17.6877 4.67187 -24.158 3.16292 2.06356 -3.60508 0 0 -7.95139e-016 -3.18055e-015 -7.95139e-016 -1.19271e-015 14.7382 9.36579 25.5364 21.9088 -19.6677 21.4485 -27.2593 -8.6016 51.6896 -10.6135 -23.2194 19.5928 -6.36111e-015 0 -0 -6.36111e-015 -3.18056e-015 -3.18055e-015 -3.10087 6.43802 -1.85693 
